<svg width="22" height="22" viewBox="0 0 22 22" fill="none" xmlns="http://www.w3.org/2000/svg">
<path d="M0.306013 9.11902L4.97966 4.44515C5.23931 4.18549 5.54532 4.00002 5.8977 3.88873C6.25008 3.77745 6.61173 3.7589 6.98266 3.83309L8.42926 4.13912C7.42776 5.32613 6.63955 6.40187 6.06462 7.36632C5.48968 8.33077 4.9333 9.49924 4.39546 10.8717L0.306013 9.11902ZM6.00898 11.6507C6.43554 10.3153 7.01493 9.05411 7.74713 7.86709C8.48008 6.68007 9.36585 5.56725 10.4044 4.52861C12.0365 2.89646 13.9004 1.6768 15.9961 0.869631C18.0918 0.0632022 20.0485 -0.182362 21.866 0.132939C22.1813 1.95056 21.9402 3.90728 21.1427 6.00311C20.3452 8.09893 19.1304 9.96292 17.4984 11.5951C16.4783 12.6152 15.3656 13.501 14.16 14.2525C12.9545 15.0033 11.6841 15.592 10.3488 16.0186L6.00898 11.6507ZM13.6871 8.31222C14.1137 8.73881 14.6378 8.9521 15.2595 8.9521C15.8804 8.9521 16.4041 8.73881 16.8307 8.31222C17.2573 7.88564 17.4705 7.3615 17.4705 6.7398C17.4705 6.11884 17.2573 5.59507 16.8307 5.16848C16.4041 4.7419 15.8804 4.52861 15.2595 4.52861C14.6378 4.52861 14.1137 4.7419 13.6871 5.16848C13.2606 5.59507 13.0473 6.11884 13.0473 6.7398C13.0473 7.3615 13.2606 7.88564 13.6871 8.31222ZM12.9082 21.694L11.1277 17.6043C12.5002 17.0665 13.6734 16.5101 14.6474 15.9351C15.6207 15.3601 16.7009 14.5719 17.8878 13.5703L18.166 15.017C18.2402 15.388 18.2217 15.7544 18.1104 16.1165C17.9991 16.4778 17.8137 16.7883 17.554 17.0479L12.9082 21.694ZM2.08645 15.2118C2.73557 14.5626 3.52378 14.2332 4.4511 14.2236C5.37841 14.2147 6.16662 14.5348 6.81574 15.1839C7.46486 15.8331 7.78942 16.6213 7.78942 17.5487C7.78942 18.476 7.46486 19.2643 6.81574 19.9134C6.35208 20.3771 5.57796 20.7759 4.49338 21.1097C3.40806 21.4436 1.91026 21.7403 0 22C0.259647 20.0896 0.556387 18.5966 0.890219 17.5209C1.22405 16.4451 1.6228 15.6754 2.08645 15.2118Z" fill="#FBB040"/>
</svg>
